<svg xmlns="http://www.w3.org/2000/svg" viewBox="0 0 256.25 256.25"><defs><style>.cls-1{fill:#f48024;}.cls-2{fill:#fff;}.cls-3{opacity:0.09;}</style></defs><g id="Layer_2" data-name="Layer 2"><g id="Layer_1-2" data-name="Layer 1"><circle class="cls-1" cx="128" cy="128" r="128"/><path class="cls-2" d="M170.59,188V150.74h16.54V204.5h-124V150.74H79.62V188Z"/><path class="cls-2" d="M152,51.5l-11.16,8.27,40.94,55,11.16-8.27Zm18.61,76.09L118.08,83.75l8.68-10.33,52.52,43.83Zm-69.88-13.24,62,29,5.78-12.41L106.5,102ZM158.6,159l2.81-12.2L94.84,132.92,92,146.61Zm-.41,16.58H92v-12.4h66.17Z"/><path class="cls-3" d="M218.76,37.75l-181,181a128,128,0,0,0,181-181Z"/></g></g></svg>